<?xml version="1.0" encoding="utf-8"?>
<!-- Generator: Adobe Illustrator 16.0.0, SVG Export Plug-In . SVG Version: 6.00 Build 0)  -->
<!DOCTYPE svg PUBLIC "-//W3C//DTD SVG 1.1//EN" "http://www.w3.org/Graphics/SVG/1.1/DTD/svg11.dtd">
<svg version="1.1" id="cl-logo-svg" xmlns="http://www.w3.org/2000/svg" xmlns:xlink="http://www.w3.org/1999/xlink" x="0px" y="0px"
	 width="91.834px" height="43.731px" viewBox="0 0 91.834 43.731" enable-background="new 0 0 91.834 43.731" xml:space="preserve">
<g>
	<path fill="#FFFFFF" d="M21.865,17.493h-8.746c-2.416,0-4.374,1.957-4.374,4.372c0,2.416,1.958,4.374,4.374,4.374h4.373h17.492
		c4.831,0,8.746,3.916,8.746,8.746c0,4.829-3.916,8.745-8.746,8.745H8.746C3.916,43.729,0,39.813,0,34.984v-13.12V8.746
		C0,3.916,3.916,0,8.746,0h4.374h8.746v0c4.831,0,8.746,3.916,8.746,8.746C30.61,13.577,26.695,17.493,21.865,17.493"/>
	<path fill="#FFFFFF" d="M74.341,17.493c-2.415,0-4.372,1.958-4.372,4.374c0,2.415,1.957,4.373,4.372,4.373h8.746
		c4.83,0,8.747,3.916,8.747,8.746c0,4.829-3.917,8.745-8.747,8.745L56.85,43.731h-0.001c-4.83-0.001-8.745-3.917-8.745-8.746
		c0-4.83,3.915-8.746,8.745-8.746c2.415,0,4.374-1.958,4.374-4.373V8.747c0-4.83,3.915-8.745,8.746-8.745v0l4.372,0v0
		c4.829,0,8.746,3.916,8.746,8.745C83.087,13.577,79.17,17.493,74.341,17.493L74.341,17.493z"/>
</g>
</svg>
