<?xml version="1.0" encoding="utf-8"?>
<!-- Generator: Adobe Illustrator 16.0.0, SVG Export Plug-In . SVG Version: 6.00 Build 0)  -->
<!DOCTYPE svg PUBLIC "-//W3C//DTD SVG 1.1//EN" "http://www.w3.org/Graphics/SVG/1.1/DTD/svg11.dtd">
<svg version="1.1" id="Layer_1" xmlns="http://www.w3.org/2000/svg" xmlns:xlink="http://www.w3.org/1999/xlink" x="0px" y="0px"
	 width="89.371px" height="131.909px" viewBox="351.556 239.956 89.371 131.909"
	 enable-background="new 351.556 239.956 89.371 131.909" xml:space="preserve">
<path fill="#D6D6D6" d="M426.771,303.489c1.094-2.285,1.786-4.36,2.158-5.625h2.724v-4.403h-1.943v-13.17h-5.783v-25.446v-0.886
	v-4.664l-25.562-6.36v-0.856c0-1.173-0.95-2.123-2.123-2.123c-1.174,0-2.124,0.95-2.124,2.123v0.855l-25.562,6.361v4.664v0.886
	l0.043,25.447h-4.676h-1.151v13.169h-1.945v4.403h2.724c0.001,0.003,0.002,0.006,0.003,0.01h12.027c0,0,0,1.444-2.095,1.514
	c-3.421,0.116-6.535,0.231-9.331,0.34c0.385,1.092,0.896,2.387,1.554,3.761l-14.152,68.375h4.337l13.053-63.065
	c1.044,1.334,2.247,2.576,3.634,3.6c4.663,3.438,12.538,4.74,17.912,5.238l-2.61,54.229h4.251l2.599-53.955
	c0.953,0.033,1.511,0.031,1.511,0.031s2.814,0.007,6.645-0.393l2.616,54.315h4.252l-2.646-54.888
	c4.52-0.765,9.473-2.131,12.794-4.58c1.388-1.021,2.59-2.265,3.633-3.599l13.054,63.065h4.338L426.771,303.489z M368.556,293.461
	h-3.235v-10.622h3.235V293.461z M391.651,280.492c-4.011-0.015-8.02-0.048-12.028-0.099c-2.213-0.03-4.009-1.856-4.009-4.066v-6.015
	v-6.013c0.001-2.212,1.795-4.036,4.009-4.066c0.668-0.008,1.336-0.017,2.004-0.024c1.336-0.015,2.674-0.027,4.011-0.039
	c2.213-0.02,4.008,1.794,4.008,4.041c-0.001,2.248-1.797,4.071-4.008,4.074c-1.337,0.001-2.675,0.004-4.011,0.007
	c-1.108,0.004-2.004,0.908-2.004,2.02c-0.001,1.114,0.896,2.018,2.004,2.021c0.669,0.002,1.336,0.004,2.005,0.004
	c2.673,0.006,5.345,0.009,8.02,0.011c2.213,0.001,4.009,1.827,4.009,4.078C395.66,278.676,393.867,280.5,391.651,280.492
	 M401.673,280.492c-2.214,0.008-4.007-1.815-4.007-4.065c0-2.252,1.791-4.078,4.007-4.079c1.107,0,2.005-0.912,2.005-2.035v-6.102
	c0-2.247,1.796-4.06,4.011-4.04v-0.001c0.669,0.006,1.336,0.012,2.003,0.018v-0.001c2.215,0.024,4.011,1.854,4.011,4.078
	c0,2.225-1.796,4.025-4.011,4.023c-1.104-0.002-2.003,0.904-2.003,2.025c0.001,1.122,0.898,2.027,2.003,2.024
	c1.337-0.002,2.674-0.005,4.011-0.008c2.215-0.003,4.011,1.787,4.011,3.998s-1.796,4.035-4.011,4.066
	C409.691,280.444,405.682,280.477,401.673,280.492 M424.328,293.471h-12.951c0,0,0-1.444,2.093-1.515
	c3.893-0.131,7.38-0.261,10.457-0.384v-8.733h3.233v10.622h-2.832V293.471z"/>
</svg>
