<?xml version="1.0" encoding="utf-8"?>
<!-- Generator: Adobe Illustrator 16.0.0, SVG Export Plug-In . SVG Version: 6.00 Build 0)  -->
<!DOCTYPE svg PUBLIC "-//W3C//DTD SVG 1.1//EN" "http://www.w3.org/Graphics/SVG/1.1/DTD/svg11.dtd">
<svg version="1.1" xmlns="http://www.w3.org/2000/svg" xmlns:xlink="http://www.w3.org/1999/xlink" x="0px" y="0px" width="49px"
	 height="29px" viewBox="0 0 49 29" enable-background="new 0 0 49 29" xml:space="preserve">
<g id="Bio" display="none">
	<path display="inline" fill="#FFFFFF" d="M51.755,29.711l-19.87-8.478v-5.495c1.876-1.852,3.044-7.98,3.044-7.98v-8.601
		c0-5.638-4.571-9.547-10.208-9.547c-5.641,0-10.213,3.909-10.213,9.547v8.601c0,0,1.169,6.128,3.046,7.981v5.493l-19.867,8.479
		c-1.454,1.453-1.454,7.668-0.005,9.117h54.073C53.205,37.379,53.209,31.164,51.755,29.711z"/>
	<g display="inline">
		<path fill="#FFFFFF" d="M51.671,29.711l-19.87-8.478v-5.495c1.876-1.852,3.044-7.98,3.044-7.98v-8.601
			c0-5.638-4.571-9.547-10.208-9.547c-5.641,0-10.213,3.909-10.213,9.547v8.601c0,0,1.169,6.128,3.046,7.981v5.493l-19.867,8.479
			c-1.454,1.453-1.454,7.668-0.005,9.117h54.073C53.121,37.379,53.125,31.164,51.671,29.711z"/>
		<g id="g3763" transform="matrix(0.02870387,0,0,0.02870387,-83.894895,102.76536)">
			<g id="g4040" transform="matrix(-1,0,0,1,1010.0388,-3547.0452)">
				<path id="path5137" fill="#FFFFFF" d="M-4138.123,497.202c-21.808-6.192-44.535,6.43-50.76,28.238
					c-2.722,9.628-1.871,19.903,2.415,28.953l119.519,247.849l-17.521,7.723l-202.702-215.494l-0.579-0.68
					c-15.65-16.365-41.643-17.045-58.042-1.395c-16.058,15.31-17.079,40.486-2.347,57.021l197.123,218.93l-7.417,15.65
					l-221.788-137.176c-19.324-11.874-44.568-5.818-56.51,13.507c-11.5,18.712-6.192,43.14,12.009,55.49l234.002,157.249
					l-4.865,22.556l-216.413-2.62c-22.659-0.238-41.234,17.964-41.371,40.69c-0.204,21.468,16.228,39.465,37.628,41.269
					l236.758,18.848l176.777,119.927l24.938,60.593c7.791,18.848,28.272,29.191,48.073,24.156l163.135-41.575
					c19.801-5.035,32.899-23.849,30.688-44.16l-25.618-236.928l18.27-117.75c0.238-1.667,0.408-3.334,0.442-5.035l3.028-99.48
					l23.713-92.369c5.546-21.944-7.689-44.262-29.667-49.876c-20.719-5.307-42.051,6.226-48.958,26.435l-30.211,88.593
					c-0.51,1.565-0.918,3.164-1.259,4.763l-22.012,103.528l-24.836,17.827l-37.458-10.581l-57.531-49.944l-145.75-274.624
					C-4118.458,507.511-4127.474,500.264-4138.123,497.202L-4138.123,497.202z"/>
			</g>
		</g>
	</g>
</g>
<g id="Mail" display="none">
	<g id="up" display="inline">
		<polygon fill="#FFFFFF" points="-1.635,-3 50.197,-3 24.281,13.789 		"/>
		<polygon fill="#FFFFFF" points="50,4.027 23.971,20.751 -2,3.898 -2,31 50,31 		"/>
	</g>
	<g id="over">
		<polygon display="inline" fill="#FFFFFF" points="-1.635,-1 50.197,-1 24.281,-17.789 		"/>
		<polygon display="inline" fill="#FFFFFF" points="50,4.027 23.971,20.751 -2,3.898 -2,31 50,31 		"/>
	</g>
</g>
<g id="viewall">
	<g>
		<rect y="0" fill="#FFFFFF" width="12" height="11"/>
		<rect x="19" y="0" fill="#FFFFFF" width="12" height="11"/>
		<rect x="37" y="0" fill="#FFFFFF" width="12" height="11"/>
		<rect y="18" fill="#FFFFFF" width="12" height="11"/>
		<rect x="19" y="18" fill="#FFFFFF" width="12" height="11"/>
		<rect x="37" y="18" fill="#FFFFFF" width="12" height="11"/>
	</g>
	<g display="none">
		<rect x="-4" y="-2" display="inline" fill="#FFFFFF" width="12" height="11"/>
		<rect x="18" y="-2" display="inline" fill="#FFFFFF" width="12" height="11"/>
		<rect x="40" y="-2" display="inline" fill="#FFFFFF" width="12" height="11"/>
		<rect x="-4" y="20" display="inline" fill="#FFFFFF" width="12" height="11"/>
		<rect x="18" y="20" display="inline" fill="#FFFFFF" width="12" height="11"/>
		<rect x="40" y="20" display="inline" fill="#FFFFFF" width="12" height="11"/>
	</g>
</g>
</svg>
